<svg id="Capa_1" enable-background="new 0 0 512 512" height="512" viewBox="0 0 512 512" width="512" xmlns="http://www.w3.org/2000/svg"><path d="m317 120c-19.53 0-36.024 12.578-42.237 30h84.474c-6.213-17.422-22.707-30-42.237-30z"/><path d="m317 0c-107.52 0-195 87.48-195 195 0 48.371 17.809 92.591 47.08 126.709l-18.801 18.801-21.218-21.218-129.061 129.075 63.633 63.633 129.075-129.061-21.218-21.218 18.801-18.801c34.118 29.271 78.338 47.08 126.709 47.08 107.52 0 195-87.48 195-195s-87.48-195-195-195zm105 300h-30c0-11.951-7.363-22.277-17.834-27.03-13.77 16.381-34.144 27.03-57.166 27.03s-43.396-10.649-57.166-27.03c-10.471 4.753-17.834 15.079-17.834 27.03h-30c0-23.134 13.605-43.645 33.494-53.582-2.055-6.832-3.494-13.925-3.494-21.418v-53.344c-17.847-10.406-30-29.542-30-51.656h30c0 6.262 2.379 11.757 5.674 16.573 6.35-15.425 17.807-28.037 32.126-36.302-4.912-7.211-7.8-15.907-7.8-25.271h30c0 8.276 6.724 15 15 15s15-6.724 15-15.01h30c0 9.374-2.888 18.07-7.8 25.28 14.319 8.265 25.776 20.878 32.126 36.302 3.296-4.816 5.674-10.311 5.674-16.583h30c0 22.124-12.153 41.26-30 51.666v53.345c0 7.493-1.439 14.586-3.494 21.418 19.889 9.937 33.494 30.448 33.494 53.582z"/><path d="m272 225c0 19.53 12.578 36.024 30 42.237v-87.237h-30z"/><path d="m332 267.237c17.422-6.213 30-22.707 30-42.237v-45h-30z"/></svg>