<?xml version="1.0" encoding="iso-8859-1"?>
<!-- Generator: Adobe Illustrator 21.0.0, SVG Export Plug-In . SVG Version: 6.00 Build 0)  -->
<svg version="1.1" id="Capa_1" xmlns="http://www.w3.org/2000/svg" xmlns:xlink="http://www.w3.org/1999/xlink" x="0px" y="0px"
	 viewBox="0 0 512 512" style="enable-background:new 0 0 512 512;" xml:space="preserve">
<circle style="fill:#FFD400;" cx="256" cy="256" r="256"/>
<path style="fill:#FFB000;" d="M511.28,275.28L389.333,153.333L122.667,421.5l86.142,86.142C224.106,510.493,239.876,512,256,512
	C390.899,512,501.422,407.659,511.28,275.28z"/>
<polygon style="fill:#00C8C8;" points="311,75 122.667,75 122.667,421.5 389.333,421.5 389.333,153.333 "/>
<polygon style="fill:#1CADB5;" points="389.333,153.333 311,75 255.571,75 255.571,421.5 389.333,421.5 "/>
<polygon style="fill:#02818E;" points="311,153.333 389.333,153.333 311,75 "/>
<path style="fill:#0092AA;" d="M161.833,225.865V383.83h188.333V225.865H161.833z M247.64,368.361H179v-19.5h68.64V368.361z
	 M247.64,333.111H179v-19.5h68.64V333.111z M247.64,295.75H179v-19.5h68.64V295.75z M247.64,260.5H179V241h68.64V260.5z
	 M335,368.361h-68.64v-19.5H335V368.361z M335,333.111h-68.64v-19.5H335V333.111z M335,295.75h-68.64v-19.5H335V295.75z M335,260.5
	h-68.64V241H335V260.5z"/>
<path style="fill:#02818E;" d="M350.167,225.865h-94.595V383.83h94.595V225.865z M335,368.361h-68.64v-19.5H335V368.361z
	 M335,333.111h-68.64v-19.5H335V333.111z M335,295.75h-68.64v-19.5H335V295.75z M335,260.5h-68.64V241H335V260.5z"/>
<g>
</g>
<g>
</g>
<g>
</g>
<g>
</g>
<g>
</g>
<g>
</g>
<g>
</g>
<g>
</g>
<g>
</g>
<g>
</g>
<g>
</g>
<g>
</g>
<g>
</g>
<g>
</g>
<g>
</g>
</svg>
